PathFileType	4	(X/Y/Z)	RBDS028\RBDS028runT35.trc
DataRate	CameraRate	NumFrames	NumMarkers	Units	OrigDataRate	OrigDataStartFrame	OrigNumFrames
150.000000	150.000000	5	33	mm	150.000000	2812	4500
Frame#	Time	L.ASIS			L.Heel.Bottom			L.Heel.Lateral			L.Heel.Top			L.Iliac.Crest			L.MT1			L.MT5			L.PSIS			L.Shank.Bottom.Lateral			L.Shank.Bottom.Medial			L.Shank.Top.Lateral			L.Shank.Top.Medial			L.Thigh.Bottom.Lateral			L.Thigh.Bottom.Medial			L.Thigh.Top.Lateral			L.Thigh.Top.Medial			R.ASIS			R.ASY			R.Heel.Bottom			R.Heel.Lateral			R.Heel.Top			R.Iliac.Crest			R.MT1			R.MT5			R.PSIS			R.Shank.Bottom.Lateral			R.Shank.Bottom.Medial			R.Shank.Top.Lateral			R.Shank.Top.Medial			R.Thigh.Bottom.Lateral			R.Thigh.Bottom.Medial			R.Thigh.Top.Lateral			R.Thigh.Top.Medial			
		X1	Y1	Z1	X2	Y2	Z2	X3	Y3	Z3	X4	Y4	Z4	X5	Y5	Z5	X6	Y6	Z6	X7	Y7	Z7	X8	Y8	Z8	X9	Y9	Z9	X10	Y10	Z10	X11	Y11	Z11	X12	Y12	Z12	X13	Y13	Z13	X14	Y14	Z14	X15	Y15	Z15	X16	Y16	Z16	X17	Y17	Z17	X18	Y18	Z18	X19	Y19	Z19	X20	Y20	Z20	X21	Y21	Z21	X22	Y22	Z22	X23	Y23	Z23	X24	Y24	Z24	X25	Y25	Z25	X26	Y26	Z26	X27	Y27	Z27	X28	Y28	Z28	X29	Y29	Z29	X30	Y30	Z30	X31	Y31	Z31	X32	Y32	Z32	X33	Y33	Z33	

2813	18.74666666666667	1987.370470685894	861.1405631150833	859.8509122369643	2030.238976400953	26.34977602168509	948.9584021899774	2059.06988479307	39.76912010251378	903.9179522228977	2039.757062621231	70.26511720803835	945.3032173344601	1913.89980088993	908.9689880350486	830.3785839882745	2248.984308137467	47.05788754252236	989.1780148208602	2213.255987859324	31.2846553800524	880.0918547396578	1838.734079624309	867.9937125618708	938.041903301693	2097.46412566336	153.3472367587549	881.7250008048682	2059.532660722802	154.7667908169542	915.366374983594	2083.275100375525	228.9990099072798	857.9778420189141	2047.541669422554	236.0140431465808	896.635063828748	2075.2142357398	546.6253600470249	815.5404712072142	2018.729732227014	516.111741185004	849.0659046815127	2018.133346618964	639.8272173004821	803.20435734384	1963.497091552277	609.7258367570907	833.6499923988466	2005.254067498673	853.0281022131029	1094.28319412928	1500.743611705229	260.3580363642694	1038.904829284418	1468.545047896074	439.8831186500964	993.4085257245148	1478.202863717578	416.1800918000814	1042.355426208327	1511.175767247339	425.9093653562679	1002.215250413539	1956.821964933879	917.6902326407397	1112.557564614669	1459.806389648857	220.2614271241472	990.0781612876675	1439.755264851068	274.0921173393891	1088.660577460628	1850.839107382704	872.6237129190403	1030.324381428012	1587.76316350769	386.2761337934805	1076.452213653675	1586.916482483742	420.9484088630874	1033.267952990374	1661.396649399921	414.9695390123933	1096.220536484152	1660.011152919031	447.4712110613509	1053.543265797764	1906.652654985433	506.0990676305555	1131.70771220058	1851.503890173905	513.3119636316375	1087.180086808157	1911.490821624734	616.1223649375705	1141.480512112473	1856.859581651832	622.4452751667496	1100.827887822102	
2814	18.75333333333333	1985.17042194023	856.6848867601522	858.2820298319072	2008.027762767399	25.9447755465707	951.8670871751049	2036.692896230943	40.19576773567656	907.0212105331573	2018.595999458873	69.81652098376424	949.7505346714734	1911.854485415685	903.1758298255602	830.152310613762	2228.328208988371	41.62183884979062	990.5089355714779	2190.675738865112	29.59133625310173	881.0037965995859	1837.528236094301	862.2678447987483	939.4302834704541	2081.714219270283	149.38615953714	885.180350300041	2043.438766533614	153.2625857078921	918.2055843630758	2071.252221499415	225.2155484937631	860.1024664994575	2035.698094647719	234.5938788885813	898.3851260649741	2071.295148394733	541.5308646334898	815.1733233929727	2015.531243193277	511.5458330082192	850.2249549840014	2014.332453590654	634.8936289795218	803.0998016531298	1960.288685327141	605.2135536126275	834.8043551617542	2005.782982389251	849.1263225903267	1093.557714404357	1510.661933608455	269.084522433166	1040.238406533224	1485.238742442853	449.2303868137249	993.1454409232813	1493.892905711997	425.5590878343714	1042.44173657834	1527.288919923935	433.6693221933561	1002.131057516358	1957.105610973324	912.2609484805969	1113.118148013854	1468.487631060967	229.7398937588858	991.9022412683255	1450.252858053677	285.186699922698	1089.837816055772	1850.532378141053	866.2666445566884	1031.364195167368	1601.715638483519	391.3571005060047	1077.435279556317	1602.673661420896	425.8523819626869	1034.137721647416	1676.295215617555	417.0016775975589	1097.721361798525	1676.647581784863	449.2915496406835	1054.865151414296	1916.677721494218	500.0764349034984	1134.276566664145	1862.103151094293	504.7200755582484	1088.716000970651	1917.676872326071	610.4242459659688	1142.585928507153	1863.416335010849	614.2654310873077	1101.041807946843	
2815	18.76	1982.726712817011	852.1930514636668	856.678030103918	1985.010861845739	25.629074439905	954.1684935059599	2013.613530128893	40.85721163626938	909.6475720014631	1996.41092891302	69.47768321587274	953.5988163514099	1909.448113590579	896.8673706664584	830.0723323287644	2206.516942359929	37.45344474012578	991.9092088675608	2167.380674710296	28.82555095488682	881.9942484995253	1836.054461492578	856.5867273804939	941.0074954799754	2065.118663369517	145.9962061498535	888.3046732163754	2026.430418785047	152.3740100527708	920.4949257472559	2058.613249503779	221.8806828353459	861.870959284534	2023.169618966014	233.6555692693515	899.5896419122619	2067.033127371089	536.4360442573246	814.7669495231845	2011.916506897305	507.0392993629713	851.2802544116224	2010.327561068531	630.0562153585601	802.9448351172233	1956.823966241186	600.8698568960058	835.8773602295109	2006.064332695078	844.8990445340708	1092.730979143692	1522.324027039722	276.3871580604871	1041.547559192745	1502.613615077984	457.0191043884956	993.1724050918193	1510.403524204486	433.3341829362307	1042.768510487056	1544.142583575699	440.0960533601465	1002.275629662969	1957.696715050629	906.5248468540084	1113.676700875499	1479.110062679509	237.7236517034198	993.6799051224599	1462.439207028473	294.4120668365131	1091.064998859689	1849.955235070735	859.9183402125174	1032.592219313093	1616.661566006554	395.3934559485404	1078.513669027029	1619.24588835191	429.7072446640115	1035.165079339114	1691.964558737785	418.268635637368	1099.291802686396	1693.888023962291	450.3056967576686	1056.276448438699	1926.836388917288	494.4622822295521	1136.81386817636	1872.805098016879	496.5181340182516	1090.399402879285	1923.909840970673	604.9516664101068	1143.746998924235	1870.044271863391	606.2777549639159	1101.455303644938	
2816	18.76666666666667	1980.06984590234	847.8312201983288	855.1236420845485	1961.571794161796	25.44603994209364	955.8616914436134	1990.202037129515	41.66708723998218	911.7372509131843	1973.589726124114	69.27981802782031	956.7145521467667	1906.689542079543	890.2273794311402	830.1581633696015	2183.920979487692	34.58697483643813	993.2618414261053	2143.73185872581	28.79783148508375	882.9936296930482	1834.31069210651	851.1559549227519	942.714496445173	2047.836535231299	143.2623417421412	890.9232646065688	2008.741001965497	152.1070419055531	922.1443001389787	2045.388664529397	219.0577672639419	863.1897853058624	2010.039439568016	233.1886844116662	900.2213834007827	2062.399906468088	531.4742410214377	814.2932153705318	2007.794673021368	502.7157363851622	852.1077261073573	2006.129134374407	625.4632127904732	802.71601273239	1953.063955262706	596.8402219412411	836.7748447934292	2006.021791762611	840.4679492779466	1091.851068210247	1535.617560261713	282.1362083690016	1042.757276673689	1520.335329482256	463.2116588509492	993.623747163076	1527.471762703865	439.4338579169375	1043.430754864775	1561.444293748131	445.1882058306491	1002.734719192543	1958.329411003162	900.6768227644939	1114.226704078999	1491.526231538956	244.0857648595052	995.3451138110107	1476.196299962899	301.584008427901	1092.368029679839	1849.058907659797	853.7937954023828	1033.946324358439	1632.447607810679	398.3427362362646	1079.688819878898	1636.436264527792	432.5401302141722	1036.379965190622	1708.29344859162	418.7777355145638	1100.918426481636	1711.578395614616	450.5873837732876	1057.79297178226	1937.246373748538	489.3589165013861	1139.260338250039	1883.66222746965	488.8010146661651	1092.261696609716	1930.266666641303	599.7841205466035	1144.955465958654	1876.764349353818	598.5576902408224	1102.156866873774	
2817	18.77333333333333	1977.254504569991	843.7566712778683	853.7039335730426	1937.99295077111	25.43899625173981	956.9819357270682	1966.719981343645	42.55212782031413	913.2658967156123	1950.441535492198	69.25590226370562	959.0294210961926	1903.609033270764	883.4890413515697	830.4090937391798	2160.849993056752	32.91448986654299	994.4540654465584	2119.98759197451	29.27551236023329	883.9193502929344	1832.316573483813	846.1744102493077	944.4709306802911	2029.988111835395	141.2116611611167	892.912619953431	1990.558516203708	152.4230170763588	923.1185475201977	2031.578813974985	216.7652333387511	864.0046779072178	1996.357823091138	233.1514803463305	900.2956738277846	2057.371054182131	526.7667109136441	813.7276056641235	2003.08294732631	498.6838556140926	852.5865523011844	2001.749295258467	621.2458090845024	802.4010875256106	1948.973091360779	593.2485432832316	837.4100285213672	2005.589329946506	835.9722799013227	1090.980812733956	1550.407208631414	286.2451398536261	1043.800463411844	1538.094914916336	467.7944849293206	994.6213744510289	1544.848952329391	443.811188778333	1044.514501688502	1578.918878811623	448.9615738267607	1003.592360871652	1958.711561785533	894.9194173097785	1114.766598992785	1505.578511534729	248.7460022000799	996.8229435266858	1491.391839251027	306.5620886167441	1093.749663479457	1847.813747644386	848.1004969466677	1035.344556681128	1648.916016519639	400.1950484616644	1080.965147038164	1654.046720525521	434.4011418920267	1037.806473876671	1725.16539772535	418.5684888698706	1102.58632131045	1729.562086958772	450.2379592080319	1059.425709125195	1948.018713311606	484.8858935337246	1141.559393238292	1894.742055973149	481.6729727112179	1094.309946513158	1936.819812671073	595.0186709062802	1146.191110304917	1883.607812718109	591.1915363382489	1103.198125321187	
